<svg width="1440" height="320" xmlns="http://www.w3.org/2000/svg">
 <g>
  <title>Layer 1</title>
  <path stroke="null" id="svg_1" d="m0,79.8418l40,-12.17398c40,-12.4026 120,-36.40763 200,-51.83943c80,-15.43181 160,-21.14729 240,-6.11557c80,15.26034 160,51.83943 240,48.81023c80,-3.25783 160,-45.5524 240,-45.72387c80,0.17146 160,42.46604 240,51.78228c80,8.97331 160,-15.03172 200,-27.43432l40,-12.17398l0,128.02683l-40,0c-40,0 -120,0 -200,0c-80,0 -160,0 -240,0c-80,0 -160,0 -240,0c-80,0 -160,0 -240,0c-80,0 -160,0 -240,0c-80,0 -160,0 -200,0l-40,0l0,-73.15819z" fill="#ffffff"/>
 </g>
</svg>